{
    "asset": {
        "version": "2.0",
        "generator": "Open Asset Import Library (assimp v5.0.-1265191577)"
    },
    "accessors": [
        {
            "bufferView": 0,
            "byteOffset": 0,
            "componentType": 5126,
            "count": 262144,
            "type": "VEC3",
            "max": [
                1.0,
                0.5538597106933594,
                1.0
            ],
            "min": [
                0.0,
                -0.0023778658360242845,
                0.0
            ]
        },
        {
            "bufferView": 1,
            "byteOffset": 0,
            "componentType": 5126,
            "count": 262144,
            "type": "VEC2",
            "max": [
                1.0,
                1.0
            ],
            "min": [
                0.0,
                0.0
            ]
        },
        {
            "bufferView": 2,
            "byteOffset": 0,
            "componentType": 5125,
            "count": 1566726,
            "type": "SCALAR",
            "max": [
                65535.0
            ],
            "min": [
                0.0
            ]
        }
    ],
    "buffers": [
        {
            "byteLength": 11509784,
            "uri": "mountain-1_Mesh_0_0.bin"
        }
    ],
    "bufferViews": [
        {
            "buffer": 0,
            "byteOffset": 0,
            "byteLength": 3145728,
            "target": 34962
        },
        {
            "buffer": 0,
            "byteOffset": 3145728,
            "byteLength": 2097152,
            "target": 34962
        },
        {
            "buffer": 0,
            "byteOffset": 5242880,
            "byteLength": 6266904,
            "target": 34963
        }
    ],
    "materials": [
        {
            "name": "Material",
            "pbrMetallicRoughness": {
                "metallicFactor": 0.0
            }
        }
    ],
    "meshes": [
        {
            "name": "Terrain",
            "primitives": [
                {
                    "mode": 4,
                    "material": 0,
                    "indices": 2,
                    "attributes": {
                        "POSITION": 0,
                        "TEXCOORD_0": 1
                    }
                }
            ]
        }
    ],
    "nodes": [
        {
            "name": "Root",
            "mesh": 0
        }
    ],
    "scenes": [
        {
            "nodes": [
                0
            ]
        }
    ],
    "scene": 0
}